<svg xmlns="http://www.w3.org/2000/svg" viewBox="0 0 1024 1024" role="img" aria-label="Apex app icon">
  <defs>
    <linearGradient id="bg" x1="164" y1="78" x2="858" y2="946" gradientUnits="userSpaceOnUse">
      <stop offset="0" stop-color="#101622"/>
      <stop offset="0.52" stop-color="#090d13"/>
      <stop offset="1" stop-color="#05070a"/>
    </linearGradient>
    <radialGradient id="tealGlow" cx="20%" cy="76%" r="54%">
      <stop offset="0" stop-color="#26d8c4" stop-opacity="0.33"/>
      <stop offset="1" stop-color="#26d8c4" stop-opacity="0"/>
    </radialGradient>
    <radialGradient id="emberGlow" cx="76%" cy="28%" r="62%">
      <stop offset="0" stop-color="#ffa430" stop-opacity="0.32"/>
      <stop offset="1" stop-color="#ffa430" stop-opacity="0"/>
    </radialGradient>
    <linearGradient id="leftPeak" x1="222" y1="846" x2="552" y2="96" gradientUnits="userSpaceOnUse">
      <stop offset="0" stop-color="#ff8e26"/>
      <stop offset="0.52" stop-color="#ffc75f"/>
      <stop offset="1" stop-color="#fff2b5"/>
    </linearGradient>
    <linearGradient id="rightPeak" x1="520" y1="126" x2="826" y2="860" gradientUnits="userSpaceOnUse">
      <stop offset="0" stop-color="#ffd168"/>
      <stop offset="0.55" stop-color="#ff9c2f"/>
      <stop offset="1" stop-color="#b94a16"/>
    </linearGradient>
    <filter id="softShadow" x="-30%" y="-30%" width="160%" height="160%">
      <feGaussianBlur in="SourceAlpha" stdDeviation="22"/>
      <feOffset dx="0" dy="18" result="offset"/>
      <feComponentTransfer>
        <feFuncA type="linear" slope="0.55"/>
      </feComponentTransfer>
      <feMerge>
        <feMergeNode/>
        <feMergeNode in="SourceGraphic"/>
      </feMerge>
    </filter>
  </defs>

  <rect width="1024" height="1024" rx="224" fill="url(#bg)"/>
  <rect width="1024" height="1024" rx="224" fill="url(#tealGlow)"/>
  <rect width="1024" height="1024" rx="224" fill="url(#emberGlow)"/>

  <g filter="url(#softShadow)">
    <path d="M150 820 512 126 874 820H688L512 476 336 820Z" fill="#ff9d2e"/>
    <path d="M150 820 512 126v350L336 820Z" fill="url(#leftPeak)"/>
    <path d="M512 126 874 820H688L512 476Z" fill="url(#rightPeak)"/>
    <path d="M512 318 622 666h-62l-48-114-48 114h-62Z" fill="#080b10" opacity="0.94"/>
    <path d="M338 714h348l39 76H299Z" fill="#23dec9"/>
    <path d="M371 734h282l17 32H354Z" fill="#bcffec" opacity="0.44"/>
    <path d="M512 126c44 84 84 162 120 234 38 76 75 153 110 230 42 92 86 168 132 230" fill="none" stroke="#fff0ba" stroke-width="18" stroke-linecap="round" opacity="0.56"/>
    <path d="M150 820h186l176-344 176 344h186" fill="none" stroke="#ffb236" stroke-width="16" stroke-linecap="round" opacity="0.74"/>
  </g>

  <path d="M744 184 764 230 811 249 764 268 744 315 724 268 677 249 724 230Z" fill="#36e5d0" opacity="0.88"/>
  <rect x="72" y="72" width="880" height="880" rx="190" fill="none" stroke="#ffc958" stroke-width="18" opacity="0.23"/>
</svg>
